HIERARCHY
ROOT Hips
{
	OFFSET 0.000000 103.266502 0.000000
	CHANNELS 6 Xposition Yposition Zposition Xrotation Yrotation Zrotation 
	JOINT Spine
	{
		OFFSET -0.002400 12.777504 0.315300
		CHANNELS 3 Xrotation Yrotation Zrotation
		JOINT Spine1
		{
			OFFSET -0.002067 5.816869 0.032633
			CHANNELS 3 Xrotation Yrotation Zrotation
			JOINT Spine1_split
			{
				OFFSET -0.002067 5.816869 0.032633
				CHANNELS 3 Xrotation Yrotation Zrotation
				JOINT Spine2
				{
					OFFSET -0.002067 5.816869 0.032633
					CHANNELS 3 Xrotation Yrotation Zrotation
					JOINT Neck
					{
						OFFSET -0.003700 21.199493 -0.826900
						CHANNELS 3 Xrotation Yrotation Zrotation
						JOINT Head
						{
							OFFSET 0.000000 20.442200 4.834800
							CHANNELS 3 Xrotation Yrotation Zrotation
							JOINT HeadTop_End
							{
								OFFSET 0.000000 34.668396 4.968400
								CHANNELS 3 Xrotation Yrotation Zrotation
								End Site
								{
									OFFSET 0.000000 0.000000 0.000000
								}
							}
						}
					}
					JOINT LeftShoulder
					{
						OFFSET 3.288150 8.794197 -1.372250
						CHANNELS 3 Xrotation Yrotation Zrotation
						JOINT LeftShoulder_split
						{
							OFFSET 3.288150 8.794197 -1.372250
							CHANNELS 3 Xrotation Yrotation Zrotation
							JOINT LeftArm
							{
								OFFSET 11.953299 -2.279007 -0.146200
								CHANNELS 3 Xrotation Yrotation Zrotation
								JOINT LeftForeArm
								{
									OFFSET 18.448900 0.000000 0.000000
									CHANNELS 3 Xrotation Yrotation Zrotation
									JOINT LeftHand
									{
										OFFSET 29.527798 0.000000 0.000000
										CHANNELS 3 Xrotation Yrotation Zrotation
										JOINT LeftHandThumb1
										{
											OFFSET 10.739754 -2.369614 9.225399
											CHANNELS 3 Xrotation Yrotation Zrotation
											JOINT LeftHandThumb2
											{
												OFFSET 4.926170 -2.844131 2.844125
												CHANNELS 3 Xrotation Yrotation Zrotation
												JOINT LeftHandThumb3
												{
													OFFSET 4.614891 -2.664413 2.664409
													CHANNELS 3 Xrotation Yrotation Zrotation
													JOINT LeftHandThumb4
													{
														OFFSET 4.432465 -2.559082 2.559083
														CHANNELS 3 Xrotation Yrotation Zrotation
														End Site
														{
															OFFSET 0.000000 0.000000 0.000000
														}
													}
												}
											}
										}
										JOINT LeftHandIndex1
										{
											OFFSET 26.467674 0.187653 6.405298
											CHANNELS 3 Xrotation Yrotation Zrotation
											JOINT LeftHandIndex2
											{
												OFFSET 8.792900 0.000000 0.000000
												CHANNELS 3 Xrotation Yrotation Zrotation
												JOINT LeftHandIndex3
												{
													OFFSET 10.075203 0.000000 0.000000
													CHANNELS 3 Xrotation Yrotation Zrotation
													End Site
													{
														OFFSET 0.000000 0.000000 0.000000
													}
												}
											}
										}
										JOINT LeftHandMiddle1
										{
											OFFSET 25.764404 0.000000 0.000000
											CHANNELS 3 Xrotation Yrotation Zrotation
											JOINT LeftHandMiddle2
											{
												OFFSET 9.393974 0.000000 0.000000
												CHANNELS 3 Xrotation Yrotation Zrotation
												JOINT LeftHandMiddle3
												{
													OFFSET 10.771950 0.000000 0.000000
													CHANNELS 3 Xrotation Yrotation Zrotation
													End Site
													{
														OFFSET 0.000000 0.000000 0.000000
													}
												}
											}
										}
										JOINT LeftHandRing1
										{
											OFFSET 24.660927 0.144547 -6.225808
											CHANNELS 3 Xrotation Yrotation Zrotation
											JOINT LeftHandRing2
											{
												OFFSET 9.393799 0.000000 0.000000
												CHANNELS 3 Xrotation Yrotation Zrotation
												JOINT LeftHandRing3
												{
													OFFSET 9.928497 0.000000 0.000000
													CHANNELS 3 Xrotation Yrotation Zrotation
													End Site
													{
														OFFSET 0.000000 0.000000 0.000000
													}
												}
											}
										}
										JOINT LeftHandPinky1
										{
											OFFSET 23.655350 0.125290 -12.815412
											CHANNELS 3 Xrotation Yrotation Zrotation
											JOINT LeftHandPinky2
											{
												OFFSET 8.425102 0.000000 0.000000
												CHANNELS 3 Xrotation Yrotation Zrotation
												JOINT LeftHandPinky3
												{
													OFFSET 8.147003 0.000000 0.000000
													CHANNELS 3 Xrotation Yrotation Zrotation
													End Site
													{
														OFFSET 0.000000 0.000000 0.000000
													}
												}
											}
										}
									}
								}
							}
						}
					}
					JOINT RightShoulder
					{
						OFFSET -3.249400 8.794197 -1.372250
						CHANNELS 3 Xrotation Yrotation Zrotation
						JOINT RightShoulder_split
						{
							OFFSET -3.249400 8.794197 -1.372250
							CHANNELS 3 Xrotation Yrotation Zrotation
							JOINT RightArm
							{
								OFFSET -11.953299 -2.279007 -0.146200
								CHANNELS 3 Xrotation Yrotation Zrotation
								JOINT RightForeArm
								{
									OFFSET -18.448900 0.000000 0.000000
									CHANNELS 3 Xrotation Yrotation Zrotation
									JOINT RightHand
									{
										OFFSET -29.527802 0.000000 0.000000
										CHANNELS 3 Xrotation Yrotation Zrotation
										JOINT RightHandThumb1
										{
											OFFSET -10.739754 -2.369614 9.225399
											CHANNELS 3 Xrotation Yrotation Zrotation
											JOINT RightHandThumb2
											{
												OFFSET -4.926170 -2.844131 2.844125
												CHANNELS 3 Xrotation Yrotation Zrotation
												JOINT RightHandThumb3
												{
													OFFSET -4.614891 -2.664413 2.664409
													CHANNELS 3 Xrotation Yrotation Zrotation
													JOINT RightHandThumb4
													{
														OFFSET -4.432465 -2.559082 2.559083
														CHANNELS 3 Xrotation Yrotation Zrotation
														End Site
														{
															OFFSET 0.000000 0.000000 0.000000
														}
													}
												}
											}
										}
										JOINT RightHandIndex1
										{
											OFFSET -26.467674 0.187653 6.405298
											CHANNELS 3 Xrotation Yrotation Zrotation
											JOINT RightHandIndex2
											{
												OFFSET -8.792900 0.000000 0.000000
												CHANNELS 3 Xrotation Yrotation Zrotation
												JOINT RightHandIndex3
												{
													OFFSET -10.075203 0.000000 0.000000
													CHANNELS 3 Xrotation Yrotation Zrotation
													End Site
													{
														OFFSET 0.000000 0.000000 0.000000
													}
												}
											}
										}
										JOINT RightHandMiddle1
										{
											OFFSET -25.764404 0.000000 0.000000
											CHANNELS 3 Xrotation Yrotation Zrotation
											JOINT RightHandMiddle2
											{
												OFFSET -9.393974 0.000000 0.000000
												CHANNELS 3 Xrotation Yrotation Zrotation
												JOINT RightHandMiddle3
												{
													OFFSET -10.771950 0.000000 0.000000
													CHANNELS 3 Xrotation Yrotation Zrotation
													End Site
													{
														OFFSET 0.000000 0.000000 0.000000
													}
												}
											}
										}
										JOINT RightHandRing1
										{
											OFFSET -24.660927 0.144547 -6.225808
											CHANNELS 3 Xrotation Yrotation Zrotation
											JOINT RightHandRing2
											{
												OFFSET -9.393799 0.000000 0.000000
												CHANNELS 3 Xrotation Yrotation Zrotation
												JOINT RightHandRing3
												{
													OFFSET -9.928497 0.000000 0.000000
													CHANNELS 3 Xrotation Yrotation Zrotation
													End Site
													{
														OFFSET 0.000000 0.000000 0.000000
													}
												}
											}
										}
										JOINT RightHandPinky1
										{
											OFFSET -23.655350 0.125290 -12.815412
											CHANNELS 3 Xrotation Yrotation Zrotation
											JOINT RightHandPinky2
											{
												OFFSET -8.425102 0.000000 0.000000
												CHANNELS 3 Xrotation Yrotation Zrotation
												JOINT RightHandPinky3
												{
													OFFSET -8.147003 0.000000 0.000000
													CHANNELS 3 Xrotation Yrotation Zrotation
													End Site
													{
														OFFSET 0.000000 0.000000 0.000000
													}
												}
											}
										}
									}
								}
							}
						}
					}
				}
			}
		}
	}
	JOINT LeftUpLeg
	{
		OFFSET 11.394100 -6.187798 -0.413800
		CHANNELS 3 Xrotation Yrotation Zrotation
		JOINT LeftLeg
		{
			OFFSET 0.430247 -32.302673 3.732800
			CHANNELS 3 Xrotation Yrotation Zrotation
			JOINT LeftFoot
			{
				OFFSET -0.430247 -48.264931 -6.423300
				CHANNELS 3 Xrotation Yrotation Zrotation
				JOINT LeftToeBase
				{
					OFFSET 4.230900 -16.068199 23.438400
					CHANNELS 3 Xrotation Yrotation Zrotation
					JOINT LeftToe_End
					{
						OFFSET 4.510700 0.695400 19.974600
						CHANNELS 3 Xrotation Yrotation Zrotation
						End Site
						{
							OFFSET 0.000000 0.000000 0.000000
						}
					}
				}
			}
		}
	}
	JOINT RightUpLeg
	{
		OFFSET -11.333700 -6.187798 -0.413800
		CHANNELS 3 Xrotation Yrotation Zrotation
		JOINT RightLeg
		{
			OFFSET -0.430392 -32.302628 3.733000
			CHANNELS 3 Xrotation Yrotation Zrotation
			JOINT RightFoot
			{
				OFFSET 0.430392 -48.264973 -6.423500
				CHANNELS 3 Xrotation Yrotation Zrotation
				JOINT RightToeBase
				{
					OFFSET -4.230900 -16.068199 23.438400
					CHANNELS 3 Xrotation Yrotation Zrotation
					JOINT RightToe_End
					{
						OFFSET -4.510700 0.695400 19.974600
						CHANNELS 3 Xrotation Yrotation Zrotation
						End Site
						{
							OFFSET 0.000000 0.000000 0.000000
						}
					}
				}
			}
		}
	}
}
MOTION
Frames: 4
Frame Time: 0.016667
0.548194 101.033562 -1.047391 2.912632 -28.992726 1.099292 7.836542 -0.348000 -2.591905 1.099256 -0.880535 2.383669 0.000000 0.000000 0.000000 1.108681 -0.590408 2.446525 -3.841324 18.019000 -6.496516 -6.333202 13.021593 0.301389 -0.000000 0.000000 0.000000 -0.055833 -8.758002 -0.067358 0.000000 0.000000 0.000000 -55.250787 0.329436 -41.449368 11.606906 -65.826044 13.026100 -50.191044 12.352929 4.610856 17.563627 -5.693992 -12.929225 10.852329 26.148375 8.654084 20.924887 51.116436 0.219802 -0.000002 -0.000001 -0.000003 13.978255 1.203572 -55.006044 0.372689 1.163870 -65.441873 0.000000 0.000000 0.000000 7.502550 1.175409 -63.755287 1.809492 1.478260 -64.569856 -0.000001 -0.000000 -0.000003 8.574328 2.179094 -75.149006 -0.208037 1.014711 -57.856798 -0.000001 0.000001 0.000003 10.030092 13.637047 -84.750258 0.878835 0.065140 -64.595490 0.000000 0.000000 0.000003 4.849280 7.760137 5.560454 0.000000 0.000000 0.000000 -0.933508 -2.176877 61.845642 11.299293 18.943475 -3.987569 -0.459213 6.620141 5.830273 15.788508 -2.734492 -17.205895 -2.198353 -31.113550 7.361180 -6.563758 -4.145947 2.404846 -0.000000 -0.000000 0.000001 2.371239 -3.658863 8.486735 -2.131701 -2.469823 18.672209 0.000000 0.000000 0.000001 -1.983660 -5.667156 13.658561 0.267050 -5.081397 26.987170 0.000000 0.000000 -0.000000 -3.231404 -8.564182 11.751469 4.036744 -4.043065 33.257161 0.000000 0.000001 -0.000000 -6.483218 -11.360888 23.256408 10.728495 -2.555676 34.821244 -0.000001 -0.000000 -0.000002 -17.581295 18.039595 11.715267 15.589586 13.151364 -1.048535 -0.204687 -4.063378 -5.304147 -0.145181 0.007824 -0.311388 -0.000000 -0.000000 0.000000 -8.746015 -1.428441 -9.025014 10.730094 9.486460 0.842121 -5.320769 -0.873651 7.443793 -1.288157 -0.027269 0.150334 -0.000000 -0.000001 -0.000000 
0.531820 101.031403 -1.032002 2.996548 -29.004139 1.140397 7.836551 -0.347973 -2.591709 1.099094 -0.876636 2.383003 0.000000 0.000000 0.000000 1.108488 -0.585937 2.445759 -3.845000 18.060111 -6.523145 -6.313231 13.058517 0.301025 0.000000 0.000000 -0.000000 -0.070035 -8.744146 -0.065998 0.000000 0.000000 0.000000 -54.884323 0.118803 -41.197594 11.633589 -65.908860 13.201959 -50.544359 12.176064 4.648549 17.563625 -5.693991 -12.929219 10.852325 26.148375 8.654082 20.924887 51.116429 0.219803 0.000001 -0.000001 0.000000 13.978256 1.203572 -55.006044 0.372688 1.163871 -65.441859 0.000001 0.000000 -0.000000 7.502548 1.175410 -63.755287 1.809490 1.478261 -64.569856 -0.000001 0.000001 -0.000002 8.574328 2.179094 -75.149006 -0.208038 1.014711 -57.856798 -0.000000 0.000000 0.000006 10.030092 13.637046 -84.750258 0.878835 0.065140 -64.595490 0.000000 0.000000 0.000002 4.841098 7.792197 5.599188 0.000000 0.000000 0.000000 -0.876146 -2.203272 61.799736 11.304734 18.977124 -3.997579 -0.474801 6.723936 5.694302 15.788508 -2.734492 -17.205895 -2.198350 -31.113550 7.361183 -6.563755 -4.145952 2.404845 -0.000001 -0.000001 0.000001 2.371242 -3.658866 8.486760 -2.131697 -2.469820 18.672170 0.000000 -0.000000 0.000001 -1.983647 -5.667155 13.658577 0.267037 -5.081394 26.987180 -0.000001 -0.000000 0.000001 -3.231401 -8.564182 11.751464 4.036754 -4.043071 33.257188 0.000001 -0.000000 0.000002 -6.483206 -11.360894 23.256449 10.728491 -2.555679 34.821250 -0.000001 0.000000 -0.000000 -17.651902 18.026389 11.726473 15.605305 13.150314 -1.051971 -0.218422 -4.062199 -5.309021 -0.145176 0.007826 -0.311388 -0.000000 -0.000000 0.000000 -8.816091 -1.428699 -9.014072 10.742662 9.493641 0.839884 -5.339435 -0.863272 7.432090 -1.278397 -0.027714 0.171742 -0.000000 -0.000000 0.000000 
0.512105 101.026817 -1.015213 3.094822 -29.008934 1.183575 7.836679 -0.344973 -2.592467 1.098786 -0.869316 2.381753 0.000000 0.000000 0.000000 1.110467 -0.579790 2.444749 -3.800850 18.130556 -6.587806 -6.340683 13.102959 0.312259 0.000000 0.000000 -0.000000 -0.072281 -8.728860 -0.064794 0.000000 0.000000 0.000000 -54.827575 0.180461 -41.050420 11.670755 -66.019079 13.220342 -50.602915 12.088216 4.574778 17.563627 -5.693990 -12.929222 10.852329 26.148375 8.654084 20.924889 51.116429 0.219801 -0.000001 -0.000001 0.000000 13.978255 1.203574 -55.006044 0.372688 1.163871 -65.441859 0.000001 -0.000001 -0.000000 7.502549 1.175412 -63.755287 1.809491 1.478260 -64.569856 0.000002 -0.000000 0.000002 8.574328 2.179096 -75.149006 -0.208038 1.014712 -57.856804 -0.000000 0.000001 0.000004 10.030090 13.637048 -84.750258 0.878835 0.065140 -64.595490 -0.000000 -0.000000 -0.000001 4.839191 7.844302 5.594995 0.000000 0.000000 0.000000 -0.848535 -2.241864 61.787278 11.331117 18.903916 -3.971929 -0.529488 6.824016 5.581354 15.788508 -2.734492 -17.205892 -2.198348 -31.113554 7.361179 -6.563754 -4.145951 2.404846 0.000000 -0.000002 -0.000000 2.371250 -3.658862 8.486745 -2.131694 -2.469828 18.672212 0.000001 -0.000000 0.000000 -1.983637 -5.667153 13.658579 0.267034 -5.081396 26.987170 -0.000000 -0.000001 0.000003 -3.231393 -8.564181 11.751454 4.036758 -4.043068 33.257199 -0.000000 -0.000001 0.000004 -6.483207 -11.360893 23.256425 10.728494 -2.555670 34.821233 -0.000000 -0.000000 0.000001 -17.733568 17.982686 11.744142 15.622103 13.154377 -1.056936 -0.229585 -4.046496 -5.332183 -0.145181 0.007824 -0.311389 -0.000000 -0.000000 0.000000 -8.918601 -1.436174 -9.008867 10.776088 9.523782 0.832064 -5.355511 -0.856100 7.426030 -1.278725 -0.027709 0.171030 -0.000000 -0.000002 -0.000000 
0.492306 101.020500 -1.000113 3.192260 -29.006082 1.224574 7.831847 -0.332710 -2.588755 1.104962 -0.859946 2.374746 0.000000 0.000000 0.000000 1.116789 -0.570569 2.437568 -3.760154 18.197026 -6.652755 -6.378134 13.164525 0.327757 0.000000 -0.000000 0.000000 -0.091584 -8.709466 -0.063617 0.000000 0.000000 0.000000 -54.824002 0.285206 -40.971522 11.705550 -66.122542 13.258958 -50.558501 12.058939 4.470698 17.563627 -5.693988 -12.929219 10.852330 26.148375 8.654079 20.924887 51.116429 0.219804 -0.000001 0.000003 0.000000 13.978255 1.203575 -55.006044 0.372689 1.163871 -65.441859 -0.000001 -0.000000 0.000001 7.502549 1.175411 -63.755287 1.809492 1.478260 -64.569863 -0.000001 0.000001 0.000003 8.574328 2.179097 -75.149006 -0.208035 1.014712 -57.856804 -0.000000 0.000000 0.000004 10.030092 13.637047 -84.750251 0.878835 0.065140 -64.595490 0.000000 -0.000000 -0.000001 4.835599 7.900897 5.599398 0.000000 0.000000 0.000000 -0.826517 -2.297777 61.813752 11.287209 18.781847 -4.000406 -0.510028 6.876272 5.554274 15.788510 -2.734491 -17.205892 -2.198351 -31.113550 7.361178 -6.563758 -4.145950 2.404845 -0.000001 -0.000002 -0.000003 2.371243 -3.658862 8.486736 -2.131698 -2.469822 18.672194 0.000001 -0.000000 0.000001 -1.983644 -5.667151 13.658574 0.267045 -5.081403 26.987157 0.000000 -0.000000 -0.000001 -3.231383 -8.564180 11.751466 4.036739 -4.043069 33.257188 -0.000000 -0.000001 0.000002 -6.483198 -11.360894 23.256463 10.728491 -2.555668 34.821237 0.000000 0.000000 -0.000002 -17.825038 17.919169 11.760822 15.661328 13.191326 -1.068243 -0.247986 -4.032776 -5.347793 -0.141172 0.007803 -0.311388 -0.000000 -0.000000 -0.000000 -9.013431 -1.453141 -8.992093 10.807915 9.510921 0.827001 -5.375551 -0.853919 7.420098 -1.278235 -0.028004 0.184508 0.000000 -0.000001 -0.000000 
